<?xml version="1.0" encoding="UTF-8" standalone="no"?><!DOCTYPE svg PUBLIC "-//W3C//DTD SVG 1.1//EN" "http://www.w3.org/Graphics/SVG/1.1/DTD/svg11.dtd"><svg width="100%" height="100%" viewBox="0 0 26 26" version="1.1" xmlns="http://www.w3.org/2000/svg" xmlns:xlink="http://www.w3.org/1999/xlink" xml:space="preserve" xmlns:serif="http://www.serif.com/" style="fill-rule:evenodd;clip-rule:evenodd;stroke-linejoin:round;stroke-miterlimit:1.41421;"><circle id="Ellipse-2-copy-4" serif:id="Ellipse 2 copy 4" cx="13" cy="13" r="13" style="fill:#fa6e6c;"/><path id="Forma-1" serif:id="Forma 1" d="M14.798,12.487l3.931,-3.932c0.363,-0.362 0.363,-0.949 0,-1.311c-0.361,-0.362 -0.948,-0.362 -1.31,0l-3.932,3.932l-3.932,-3.932c-0.362,-0.362 -0.948,-0.362 -1.31,0c-0.362,0.362 -0.362,0.949 0,1.311l3.931,3.932l-3.931,3.931c-0.362,0.362 -0.362,0.949 0,1.311c0.362,0.362 0.948,0.362 1.31,0l3.932,-3.932l3.932,3.932c0.362,0.362 0.949,0.362 1.31,0c0.363,-0.362 0.363,-0.949 0,-1.311l-3.931,-3.931Z" style="fill:#fff;fill-rule:nonzero;"/></svg>