<?xml version="1.0" encoding="UTF-8" standalone="no"?><!DOCTYPE svg PUBLIC "-//W3C//DTD SVG 1.1//EN" "http://www.w3.org/Graphics/SVG/1.1/DTD/svg11.dtd"><svg width="100%" height="100%" viewBox="0 0 26 26" version="1.1" xmlns="http://www.w3.org/2000/svg" xmlns:xlink="http://www.w3.org/1999/xlink" xml:space="preserve" xmlns:serif="http://www.serif.com/" style="fill-rule:evenodd;clip-rule:evenodd;stroke-linejoin:round;stroke-miterlimit:1.41421;"><circle id="Ellipse-2-copy" serif:id="Ellipse 2 copy" cx="13" cy="13" r="13" style="fill:#469dc9;"/><path id="Forma-1" serif:id="Forma 1" d="M14.82,18.379l-0.19,0.857c-0.569,0.248 -1.024,0.437 -1.363,0.567c-0.339,0.13 -0.732,0.195 -1.181,0.195c-0.69,0 -1.226,-0.187 -1.608,-0.557c-0.382,-0.372 -0.574,-0.843 -0.574,-1.415c0,-0.221 0.014,-0.448 0.043,-0.681c0.029,-0.232 0.075,-0.493 0.139,-0.785l0.711,-2.782c0.063,-0.265 0.117,-0.518 0.16,-0.756c0.044,-0.237 0.065,-0.456 0.065,-0.652c0,-0.355 -0.066,-0.604 -0.199,-0.743c-0.133,-0.14 -0.386,-0.211 -0.761,-0.211c-0.184,0 -0.373,0.033 -0.566,0.097c-0.193,0.062 -0.359,0.124 -0.498,0.18l0.191,-0.857c0.466,-0.21 0.911,-0.389 1.337,-0.538c0.427,-0.15 0.829,-0.225 1.21,-0.225c0.685,0 1.213,0.183 1.584,0.549c0.371,0.365 0.556,0.839 0.556,1.423c0,0.121 -0.012,0.334 -0.038,0.639c-0.026,0.305 -0.073,0.584 -0.143,0.838l-0.708,2.77c-0.058,0.223 -0.111,0.477 -0.156,0.763c-0.047,0.284 -0.069,0.502 -0.069,0.648c0,0.367 0.074,0.618 0.223,0.751c0.15,0.134 0.408,0.201 0.775,0.201c0.172,0 0.369,-0.034 0.586,-0.1c0.217,-0.067 0.376,-0.125 0.474,-0.176Zm0.18,-11.629c0,0.483 -0.165,0.895 -0.496,1.234c-0.33,0.34 -0.728,0.51 -1.193,0.51c-0.467,0 -0.866,-0.17 -1.2,-0.51c-0.333,-0.339 -0.5,-0.751 -0.5,-1.234c0,-0.481 0.167,-0.894 0.5,-1.237c0.334,-0.343 0.733,-0.515 1.2,-0.515c0.465,0 0.863,0.172 1.193,0.515c0.331,0.343 0.496,0.756 0.496,1.237Z" style="fill:#fff;fill-rule:nonzero;"/></svg>