<?xml version="1.0" encoding="UTF-8" standalone="no"?><!DOCTYPE svg PUBLIC "-//W3C//DTD SVG 1.1//EN" "http://www.w3.org/Graphics/SVG/1.1/DTD/svg11.dtd"><svg width="100%" height="100%" viewBox="0 0 26 26" version="1.1" xmlns="http://www.w3.org/2000/svg" xmlns:xlink="http://www.w3.org/1999/xlink" xml:space="preserve" xmlns:serif="http://www.serif.com/" style="fill-rule:evenodd;clip-rule:evenodd;stroke-linejoin:round;stroke-miterlimit:1.41421;"><path id="Forma-1" serif:id="Forma 1" d="M7.602,4.984l9.796,0l0,-1.484l1.485,0l0,1.484l0.89,0c1.228,0 2.227,0.999 2.227,2.227l0,13.062c0,1.228 -0.999,2.227 -2.227,2.227l-14.546,0c-1.228,0 -2.227,-0.999 -2.227,-2.227l0,-13.062c0,-1.227 0.998,-2.226 2.227,-2.227l0.89,0l0,-1.484l1.485,0l0,1.484Zm12.171,16.032c0.41,-0.001 0.743,-0.334 0.743,-0.743l0,-9.796l-16.032,0l0,9.796c0,0.41 0.333,0.743 0.743,0.743l14.546,0Zm-9.5,-1.559l-1.484,0l0,-1.484l1.484,0l0,1.484Zm2.969,0l-1.484,0l0,-1.484l1.484,0l0,1.484Zm-5.937,0l-1.485,0l0,-1.484l1.485,0l0,1.484Zm8.906,0l-1.484,0l0,-1.484l1.484,0l0,1.484Zm-5.938,-2.969l-1.484,0l0,-1.484l1.484,0l0,1.484Zm2.969,0l-1.484,0l0,-1.484l1.484,0l0,1.484Zm5.938,0l-1.485,0l0,-1.484l1.485,0l0,1.484Zm-11.875,0l-1.485,0l0,-1.484l1.485,0l0,1.484Zm8.906,0l-1.484,0l0,-1.484l1.484,0l0,1.484Zm-5.938,-2.968l-1.484,0l0,-1.485l1.484,0l0,1.485Zm2.969,0l-1.484,0l0,-1.485l1.484,0l0,1.485Zm5.938,0l-1.485,0l0,-1.485l1.485,0l0,1.485Zm-11.875,0l-1.485,0l0,-1.485l1.485,0l0,1.485Zm8.906,0l-1.484,0l0,-1.485l1.484,0l0,1.485Zm4.305,-4.528l0,-1.781c0,-0.409 -0.333,-0.742 -0.743,-0.742l-0.89,0l0,1.484l-1.485,0l0,-1.484l-9.796,0l0,1.484l-1.485,0l0,-1.484l-0.89,0c-0.41,0 -0.743,0.333 -0.743,0.742l0,1.781l16.032,0Z" style="fill:#ffa3a6;"/></svg>