<?xml version="1.0" encoding="UTF-8" standalone="no"?><!DOCTYPE svg PUBLIC "-//W3C//DTD SVG 1.1//EN" "http://www.w3.org/Graphics/SVG/1.1/DTD/svg11.dtd"><svg width="100%" height="100%" viewBox="0 0 20 20" version="1.1" xmlns="http://www.w3.org/2000/svg" xmlns:xlink="http://www.w3.org/1999/xlink" xml:space="preserve" xmlns:serif="http://www.serif.com/" style="fill-rule:evenodd;clip-rule:evenodd;stroke-linejoin:round;stroke-miterlimit:1.41421;"><path id="Shape-1" serif:id="Shape 1" d="M19.245,10.329l-4.353,-4.324l0,-3.647c0,-0.474 -0.386,-0.858 -0.863,-0.858c-0.477,0 -0.864,0.384 -0.864,0.858l0,1.932l-2.556,-2.539c-0.337,-0.335 -0.884,-0.335 -1.221,0l-8.635,8.578c-0.337,0.335 -0.337,0.878 0,1.213c0.169,0.167 0.39,0.251 0.611,0.251c0.221,0 0.442,-0.084 0.61,-0.251l1.404,-1.395l0,6.507c0,0.474 0.387,0.858 0.864,0.858l11.514,0c0.477,0 0.863,-0.384 0.863,-0.858l0,-6.507l1.404,1.395c0.338,0.335 0.885,0.335 1.222,0c0.337,-0.335 0.337,-0.878 0,-1.213Zm-10.11,5.468l0,-3.432l1.727,0l0,3.432l-1.727,0Zm5.757,0l-2.303,0l0,-4.289c0,-0.474 -0.386,-0.858 -0.863,-0.858l-3.454,0c-0.477,0 -0.864,0.384 -0.864,0.858l0,4.289l-2.302,0l0,-7.366l4.893,-4.86l4.893,4.861l0,7.365Z" style="fill:#717171;fill-rule:nonzero;"/></svg>