<?xml version="1.0" encoding="UTF-8" standalone="no"?><!DOCTYPE svg PUBLIC "-//W3C//DTD SVG 1.1//EN" "http://www.w3.org/Graphics/SVG/1.1/DTD/svg11.dtd"><svg width="100%" height="100%" viewBox="0 0 20 20" version="1.1" xmlns="http://www.w3.org/2000/svg" xmlns:xlink="http://www.w3.org/1999/xlink" xml:space="preserve" xmlns:serif="http://www.serif.com/" style="fill-rule:evenodd;clip-rule:evenodd;stroke-linejoin:round;stroke-miterlimit:1.41421;"><path id="Forma-1" serif:id="Forma 1" d="M12.777,1c0.884,0 1.603,0.669 1.603,1.49l0,9.691c1.765,0.255 3.12,1.677 3.12,3.389c0,1.891 -1.655,3.43 -3.689,3.43c-1.657,0 -3.062,-1.021 -3.526,-2.422l-7.182,0c-0.885,-0.001 -1.603,-0.669 -1.603,-1.49l0,-10.588c0,-0.144 0.06,-0.279 0.17,-0.381l3.186,-2.962c0.111,-0.101 0.255,-0.157 0.409,-0.157l7.512,0Zm1.034,16.943c-1.407,0 -2.552,-1.065 -2.552,-2.373c0,-1.309 1.145,-2.373 2.552,-2.373c1.407,0 2.552,1.064 2.552,2.373c0,1.308 -1.145,2.373 -2.552,2.373Zm0.566,-1.026c-0.002,-0.017 -0.005,-0.034 -0.009,-0.051c-0.003,-0.017 -0.008,-0.034 -0.013,-0.051c-0.006,-0.016 -0.012,-0.033 -0.019,-0.048c-0.007,-0.016 -0.015,-0.032 -0.024,-0.047c-0.008,-0.015 -0.018,-0.03 -0.028,-0.045c-0.01,-0.014 -0.022,-0.028 -0.033,-0.041c-0.012,-0.014 -0.025,-0.027 -0.038,-0.039c-0.013,-0.012 -0.027,-0.024 -0.041,-0.035c-0.015,-0.011 -0.03,-0.021 -0.045,-0.03c-0.016,-0.01 -0.032,-0.019 -0.048,-0.027c-0.016,-0.008 -0.033,-0.016 -0.05,-0.022c-0.018,-0.007 -0.035,-0.013 -0.053,-0.018c-0.018,-0.005 -0.035,-0.009 -0.054,-0.012c-0.018,-0.004 -0.036,-0.006 -0.055,-0.008c-0.037,-0.004 -0.075,-0.004 -0.112,0c-0.018,0.002 -0.037,0.004 -0.055,0.008c-0.018,0.003 -0.036,0.007 -0.054,0.012c-0.018,0.005 -0.035,0.011 -0.052,0.018c-0.017,0.006 -0.034,0.014 -0.051,0.022c-0.016,0.008 -0.032,0.017 -0.047,0.027c-0.016,0.009 -0.031,0.019 -0.045,0.03c-0.015,0.011 -0.028,0.023 -0.042,0.035c-0.013,0.012 -0.026,0.025 -0.037,0.039c-0.012,0.013 -0.023,0.027 -0.034,0.041c-0.01,0.015 -0.019,0.03 -0.028,0.045c-0.009,0.015 -0.017,0.031 -0.024,0.047c-0.007,0.015 -0.013,0.032 -0.018,0.048c-0.006,0.017 -0.01,0.034 -0.014,0.051c-0.004,0.017 -0.007,0.034 -0.008,0.051c-0.002,0.017 -0.003,0.035 -0.003,0.052c0,0.017 0.001,0.034 0.003,0.052c0.001,0.017 0.004,0.034 0.008,0.051c0.004,0.017 0.008,0.034 0.014,0.05c0.005,0.017 0.011,0.033 0.018,0.049c0.007,0.016 0.015,0.031 0.024,0.047c0.009,0.015 0.018,0.03 0.028,0.044c0.011,0.014 0.022,0.029 0.034,0.042c0.012,0.013 0.024,0.026 0.037,0.038c0.014,0.013 0.027,0.024 0.042,0.035c0.014,0.011 0.029,0.022 0.045,0.031c0.015,0.01 0.031,0.019 0.047,0.027c0.017,0.008 0.034,0.015 0.051,0.022c0.017,0.006 0.034,0.012 0.052,0.017c0.018,0.005 0.036,0.01 0.054,0.013c0.018,0.003 0.037,0.006 0.055,0.008c0.019,0.001 0.038,0.002 0.056,0.002c0.019,0 0.037,-0.001 0.056,-0.002c0.019,-0.002 0.037,-0.005 0.055,-0.008c0.019,-0.003 0.036,-0.008 0.054,-0.013c0.018,-0.005 0.035,-0.011 0.053,-0.017c0.017,-0.007 0.034,-0.014 0.05,-0.022c0.016,-0.008 0.032,-0.017 0.048,-0.027c0.015,-0.009 0.03,-0.02 0.045,-0.031c0.014,-0.011 0.028,-0.022 0.041,-0.035c0.013,-0.012 0.026,-0.025 0.038,-0.038c0.011,-0.013 0.023,-0.028 0.033,-0.042c0.01,-0.014 0.02,-0.029 0.028,-0.044c0.009,-0.016 0.017,-0.031 0.024,-0.047c0.007,-0.016 0.013,-0.032 0.019,-0.049c0.005,-0.016 0.01,-0.033 0.013,-0.05c0.004,-0.017 0.007,-0.034 0.009,-0.051c0.002,-0.018 0.003,-0.035 0.003,-0.052c0,-0.017 -0.001,-0.035 -0.003,-0.052Zm-0.566,-3.214c-0.314,0 -0.568,0.237 -0.568,0.528l0,1.339c0,0.292 0.254,0.529 0.568,0.529c0.314,0 0.569,-0.237 0.569,-0.529l0,-1.339c0,-0.291 -0.255,-0.528 -0.569,-0.528Zm-3.688,1.818c0.026,-1.69 1.372,-3.088 3.12,-3.34l0,-9.691c0,-0.239 -0.209,-0.433 -0.466,-0.433l-6.943,0l0,2.418c0,0.004 -0.001,0.008 -0.001,0.013c0,0.004 0.001,0.008 0.001,0.012c0,0.292 -0.255,0.528 -0.569,0.528l-2.628,0l0,10.06c0,0.238 0.209,0.433 0.466,0.433l7.02,0Zm-2.887,-3.036c0.314,0 0.568,0.237 0.568,0.528c0,0.292 -0.254,0.528 -0.568,0.529l-2.892,0c-0.314,0 -0.569,-0.237 -0.569,-0.529c0,-0.291 0.254,-0.528 0.569,-0.528l2.892,0Zm4.3,-2.104c0.315,0 0.568,0.237 0.569,0.528c0,0.292 -0.254,0.528 -0.569,0.529l-7.192,0c-0.314,0 -0.569,-0.237 -0.569,-0.529c0,-0.291 0.254,-0.528 0.569,-0.528l7.192,0Zm0,-2.121c0.315,0.001 0.568,0.237 0.569,0.529c0,0.291 -0.254,0.528 -0.569,0.528l-7.192,0c-0.314,0 -0.569,-0.236 -0.569,-0.528c0,-0.292 0.254,-0.528 0.569,-0.529l7.192,0Zm0,-2.039c0.315,0.001 0.569,0.237 0.569,0.529c0,0.292 -0.254,0.528 -0.569,0.529l-7.192,0c-0.314,0 -0.569,-0.237 -0.569,-0.529c0,-0.292 0.254,-0.528 0.569,-0.529l7.192,0Zm-6.839,-2.25l0,-1.171l-1.26,1.171l1.26,0Z" style="fill:#fff;"/></svg>