<?xml version="1.0" encoding="UTF-8" standalone="no"?><!DOCTYPE svg PUBLIC "-//W3C//DTD SVG 1.1//EN" "http://www.w3.org/Graphics/SVG/1.1/DTD/svg11.dtd"><svg width="100%" height="100%" viewBox="0 0 26 26" version="1.1" xmlns="http://www.w3.org/2000/svg" xmlns:xlink="http://www.w3.org/1999/xlink" xml:space="preserve" xmlns:serif="http://www.serif.com/" style="fill-rule:evenodd;clip-rule:evenodd;stroke-linejoin:round;stroke-miterlimit:1.41421;"><path id="Forma-1" serif:id="Forma 1" d="M17.843,8.511l0,15.996l-14.843,0l0,-18.573l12.085,0l2.758,2.577Zm-3.418,0.621l0,-1.961l-10.141,0l0,16.099l12.276,0l0,-14.138l-2.135,0Zm5.928,-3.467l0,15.996l-1.847,0l0,-1.238l0.564,0l0,-14.137l-2.136,0l0,-1.962l-10.141,0l0,0.914l-1.284,0l0,-2.15l12.086,0l2.758,2.577Zm-6.109,14.474c0.665,0.001 0.665,0.995 0,0.996l-7.951,0c-0.664,0 -0.665,-0.995 0,-0.996l7.951,0Zm5.988,-19.639l2.758,2.577l0,15.995l-1.847,0l0,-1.236l0.563,0l0,-14.138l-2.135,0l0,-1.961l-10.142,0l0,0.913l-1.283,0l0,-2.15l12.086,0Zm-5.836,17.418c0.666,0.001 0.666,0.993 0,0.994l-7.949,0c-0.665,0 -0.666,-0.993 0,-0.994l7.949,0Zm0,-2.354c0.666,0.001 0.666,0.993 0,0.994l-7.949,0c-0.665,0 -0.666,-0.993 0,-0.994l7.949,0Zm0,-2.181c0.666,0.001 0.666,0.994 0,0.995l-7.949,0c-0.665,0 -0.666,-0.994 0,-0.995l7.949,0Zm0,-2.355c0.666,0.001 0.666,0.995 0,0.996l-7.949,0c-0.665,0 -0.666,-0.995 0,-0.996l7.949,0Z" style="fill:#9791ee;"/></svg>