<?xml version="1.0" encoding="UTF-8" standalone="no"?><!DOCTYPE svg PUBLIC "-//W3C//DTD SVG 1.1//EN" "http://www.w3.org/Graphics/SVG/1.1/DTD/svg11.dtd"><svg width="100%" height="100%" viewBox="0 0 26 26" version="1.1" xmlns="http://www.w3.org/2000/svg" xmlns:xlink="http://www.w3.org/1999/xlink" xml:space="preserve" xmlns:serif="http://www.serif.com/" style="fill-rule:evenodd;clip-rule:evenodd;stroke-linejoin:round;stroke-miterlimit:1.41421;"><path id="Layer-14" serif:id="Layer 14" d="M10.25,25c-0.121,0 -0.243,-0.029 -0.354,-0.089c-0.244,-0.13 -0.396,-0.385 -0.396,-0.661l0,-9.62c0,-0.35 -0.147,-0.686 -0.405,-0.922l-8.028,-7.353c-0.361,-0.332 -0.567,-0.802 -0.567,-1.29l0,-2.315c0,-0.965 0.785,-1.75 1.75,-1.75l20.5,0c0.965,0 1.75,0.785 1.75,1.75l0,2.315c0,0.488 -0.206,0.958 -0.566,1.29l-8.027,7.354c-0.26,0.235 -0.407,0.571 -0.407,0.921l0,6.084c0,0.586 -0.291,1.131 -0.779,1.456l-4.055,2.703c-0.125,0.085 -0.27,0.127 -0.416,0.127Zm12.5,-22.5l-20.5,0c-0.148,0.01 -0.25,0.118 -0.25,0.25l0,2.315c0,0.07 0.03,0.137 0.082,0.185l8.025,7.352c0.567,0.52 0.893,1.259 0.893,2.028l0,8.218l2.889,-1.926c0.069,-0.046 0.111,-0.124 0.111,-0.208l0,-6.084c0,-0.77 0.325,-1.509 0.894,-2.028l8.025,-7.353c0.051,-0.047 0.081,-0.114 0.081,-0.184l0,-2.315c0,-0.132 -0.102,-0.24 -0.25,-0.25Z" style="fill:#e5e5ff;"/></svg>