<?xml version="1.0" encoding="UTF-8" standalone="no"?><!DOCTYPE svg PUBLIC "-//W3C//DTD SVG 1.1//EN" "http://www.w3.org/Graphics/SVG/1.1/DTD/svg11.dtd"><svg width="100%" height="100%" viewBox="0 0 14 14" version="1.1" xmlns="http://www.w3.org/2000/svg" xmlns:xlink="http://www.w3.org/1999/xlink" xml:space="preserve" xmlns:serif="http://www.serif.com/" style="fill-rule:evenodd;clip-rule:evenodd;stroke-linejoin:round;stroke-miterlimit:1.41421;"><path id="Shape-1" serif:id="Shape 1" d="M6.999,6.2l6.035,-6.034c0.22,-0.221 0.578,-0.221 0.799,0c0.221,0.221 0.221,0.579 0,0.799l-6.034,6.035l6.034,6.034c0.221,0.221 0.221,0.579 0,0.8c-0.11,0.11 -0.255,0.166 -0.399,0.166c-0.145,0 -0.29,-0.056 -0.4,-0.166l-6.035,-6.035l-6.034,6.035c-0.11,0.11 -0.255,0.165 -0.399,0.165c-0.145,0 -0.29,-0.055 -0.4,-0.165c-0.221,-0.221 -0.221,-0.579 0,-0.8l6.034,-6.034l-6.034,-6.035c-0.221,-0.22 -0.221,-0.578 0,-0.799c0.22,-0.221 0.579,-0.221 0.799,0l6.034,6.034Z"/></svg>