<?xml version="1.0" encoding="UTF-8" standalone="no"?><!DOCTYPE svg PUBLIC "-//W3C//DTD SVG 1.1//EN" "http://www.w3.org/Graphics/SVG/1.1/DTD/svg11.dtd"><svg width="100%" height="100%" viewBox="0 0 20 20" version="1.1" xmlns="http://www.w3.org/2000/svg" xmlns:xlink="http://www.w3.org/1999/xlink" xml:space="preserve" xmlns:serif="http://www.serif.com/" style="fill-rule:evenodd;clip-rule:evenodd;stroke-linejoin:round;stroke-miterlimit:1.41421;"><path id="Shape-1" serif:id="Shape 1" d="M9.5,1.5c-4.411,0 -8,3.589 -8,8c0,4.411 3.589,8 8,8c4.411,0 8,-3.589 8,-8c0,-4.411 -3.589,-8 -8,-8Zm0,14.545c-3.609,0 -6.546,-2.936 -6.546,-6.545c0,-3.609 2.937,-6.545 6.546,-6.545c3.609,0 6.545,2.936 6.545,6.545c0,3.609 -2.936,6.545 -6.545,6.545Zm0,-3.393c-0.535,0 -0.969,0.434 -0.969,0.969c0,0.535 0.434,0.97 0.969,0.97c0.535,0 0.97,-0.435 0.97,-0.97c0,-0.535 -0.435,-0.969 -0.97,-0.969Zm0,-8.243c-1.471,0 -2.668,1.197 -2.668,2.668c0,0.402 0.326,0.727 0.727,0.727c0.402,0 0.728,-0.325 0.728,-0.727c0,-0.669 0.544,-1.213 1.213,-1.213c0.669,0 1.213,0.544 1.213,1.213c0,0.669 -0.544,1.213 -1.213,1.213c-0.402,0 -0.727,0.326 -0.727,0.728l0,1.452c0,0.401 0.325,0.727 0.727,0.727c0.402,0 0.727,-0.326 0.727,-0.727l0,-0.827c1.119,-0.317 1.941,-1.347 1.941,-2.566c0,-1.471 -1.197,-2.668 -2.668,-2.668Z" style="fill:#656565;"/></svg>