<?xml version="1.0" encoding="UTF-8" standalone="no"?><!DOCTYPE svg PUBLIC "-//W3C//DTD SVG 1.1//EN" "http://www.w3.org/Graphics/SVG/1.1/DTD/svg11.dtd"><svg width="100%" height="100%" viewBox="0 0 20 20" version="1.1" xmlns="http://www.w3.org/2000/svg" xmlns:xlink="http://www.w3.org/1999/xlink" xml:space="preserve" xmlns:serif="http://www.serif.com/" style="fill-rule:evenodd;clip-rule:evenodd;stroke-linejoin:round;stroke-miterlimit:1.41421;"><path id="Forma-1" serif:id="Forma 1" d="M17,5.885c0,-0.171 -0.073,-0.325 -0.189,-0.43l-3.197,-3.287c-0.104,-0.108 -0.246,-0.168 -0.394,-0.168l-2.428,0l-1.585,0l-2.429,0c-0.148,0 -0.289,0.06 -0.394,0.168l-3.221,3.311l0,0.001c-0.018,0.018 -0.033,0.037 -0.048,0.058c-0.004,0.004 -0.007,0.009 -0.01,0.013c-0.015,0.021 -0.028,0.042 -0.039,0.064c-0.001,0.002 -0.002,0.003 -0.003,0.005c-0.01,0.021 -0.02,0.043 -0.028,0.065c-0.001,0.005 -0.003,0.009 -0.004,0.014c-0.008,0.024 -0.015,0.048 -0.02,0.074c0,0 0,0.001 -0.001,0.002c-0.004,0.023 -0.007,0.047 -0.008,0.071c-0.001,0.006 -0.001,0.013 -0.001,0.02c0,0.006 -0.001,0.013 -0.001,0.019l0,11.542c0,0.316 0.25,0.573 0.558,0.573l12.883,0c0.308,0 0.557,-0.257 0.557,-0.573l0,-11.513c0.001,-0.009 0.002,-0.019 0.002,-0.029Zm-1.906,-0.574l-3.051,0l-0.534,-2.164l1.48,0l2.105,2.164Zm-6.148,1.147l2.106,0l0,4.624l-2.106,0l0,-4.624Zm1.412,-3.311l0.535,2.164l-1.787,0l0.534,-2.164l0.718,0Zm-3.349,0l1.481,0l-0.535,2.164l-3.051,0l2.105,-2.164Zm8.874,13.706l-11.768,0l0,-10.395l3.716,0l0,5.198c0,0.316 0.25,0.573 0.558,0.573l3.221,0c0.308,0 0.557,-0.257 0.557,-0.573l0,-5.198l3.716,0l0,10.395Z" style="fill:#656565;fill-rule:nonzero;"/></svg>