<?xml version="1.0" encoding="UTF-8" standalone="no"?><!DOCTYPE svg PUBLIC "-//W3C//DTD SVG 1.1//EN" "http://www.w3.org/Graphics/SVG/1.1/DTD/svg11.dtd"><svg width="100%" height="100%" viewBox="0 0 20 20" version="1.1" xmlns="http://www.w3.org/2000/svg" xmlns:xlink="http://www.w3.org/1999/xlink" xml:space="preserve" xmlns:serif="http://www.serif.com/" style="fill-rule:evenodd;clip-rule:evenodd;stroke-linejoin:round;stroke-miterlimit:1.41421;"><path id="Shape-1" serif:id="Shape 1" d="M3.031,11.485c-0.228,-2.53 0.822,-4.822 2.564,-6.279c0.679,-0.568 1.695,-0.081 1.695,0.817c0,0.329 -0.153,0.633 -0.4,0.839c-1.234,1.035 -1.977,2.667 -1.796,4.47c0.235,2.347 2.062,4.248 4.341,4.509c2.973,0.343 5.499,-2.054 5.499,-5.045c0,-1.587 -0.714,-3.007 -1.827,-3.938c-0.248,-0.205 -0.397,-0.509 -0.397,-0.835c0,-0.888 0.999,-1.391 1.672,-0.836c1.593,1.322 2.615,3.343 2.615,5.609c0,4.144 -3.421,7.484 -7.511,7.18c-3.383,-0.245 -6.141,-3.017 -6.455,-6.491Zm6.966,-9.485c-0.572,0 -1.032,0.477 -1.032,1.061l0,4.888c0,0.588 0.464,1.061 1.032,1.061c0.568,0 1.031,-0.476 1.031,-1.061l0,-4.888c0,-0.584 -0.46,-1.061 -1.031,-1.061Z" style="fill:#656565;fill-rule:nonzero;"/></svg>