<?xml version="1.0" encoding="UTF-8" standalone="no"?><!DOCTYPE svg PUBLIC "-//W3C//DTD SVG 1.1//EN" "http://www.w3.org/Graphics/SVG/1.1/DTD/svg11.dtd"><svg width="100%" height="100%" viewBox="0 0 26 26" version="1.1" xmlns="http://www.w3.org/2000/svg" xmlns:xlink="http://www.w3.org/1999/xlink" xml:space="preserve" xmlns:serif="http://www.serif.com/" style="fill-rule:evenodd;clip-rule:evenodd;stroke-linejoin:round;stroke-miterlimit:1.41421;"><path id="Shape-1" serif:id="Shape 1" d="M21.852,17.448c-0.364,-0.213 -0.83,-0.088 -1.041,0.281c-1.789,3.129 -5.132,5.23 -8.953,5.23c-5.699,0 -10.335,-4.692 -10.335,-10.459c0,-5.767 4.636,-10.459 10.335,-10.459c3.823,0 7.165,2.103 8.953,5.23c0.211,0.368 0.677,0.494 1.04,0.281c0.364,-0.213 0.489,-0.684 0.278,-1.053c-2.057,-3.599 -5.899,-5.999 -10.271,-5.999c-6.554,0 -11.858,5.367 -11.858,12c0,6.632 5.304,12 11.858,12c4.374,0 8.215,-2.402 10.271,-5.999c0.211,-0.369 0.087,-0.84 -0.277,-1.053Zm-0.165,-5.719l0,-1.213c0,-0.623 0.697,-0.989 1.201,-0.63l2.78,1.984c0.434,0.31 0.425,0.957 0,1.26l-2.781,1.984c-0.5,0.356 -1.2,-0.003 -1.2,-0.63l0,-1.213l-13.352,0c-0.43,-0.01 -0.762,-0.351 -0.762,-0.771c0,-0.42 0.332,-0.761 0.762,-0.771l13.352,0Z" style="fill:#e5e5ff;"/></svg>