<?xml version="1.0" encoding="UTF-8" standalone="no"?><!DOCTYPE svg PUBLIC "-//W3C//DTD SVG 1.1//EN" "http://www.w3.org/Graphics/SVG/1.1/DTD/svg11.dtd"><svg width="100%" height="100%" viewBox="0 0 26 26" version="1.1" xmlns="http://www.w3.org/2000/svg" xmlns:xlink="http://www.w3.org/1999/xlink" xml:space="preserve" xmlns:serif="http://www.serif.com/" style="fill-rule:evenodd;clip-rule:evenodd;stroke-linejoin:round;stroke-miterlimit:1.41421;"><path id="Forma-1" serif:id="Forma 1" d="M21.932,18.099c0.289,-0.442 0.459,-0.97 0.459,-1.536c0,-1.067 -0.597,-1.997 -1.475,-2.474c-0.148,-1.161 -0.545,-2.303 -1.16,-3.327c-0.613,-1.022 -1.432,-1.909 -2.379,-2.584c-0.217,-1.361 -1.218,-2.463 -2.523,-2.829c0.289,-0.442 0.458,-0.97 0.458,-1.536c0,-1.551 -1.261,-2.813 -2.812,-2.813c-1.551,0 -2.812,1.262 -2.812,2.813c0,0.566 0.169,1.094 0.458,1.537c-1.305,0.365 -2.306,1.467 -2.523,2.828c-0.947,0.675 -1.766,1.562 -2.379,2.584c-0.615,1.024 -1.012,2.166 -1.16,3.327c-0.878,0.477 -1.475,1.407 -1.475,2.474c0,0.566 0.17,1.094 0.459,1.536c-1.479,0.415 -2.568,1.775 -2.568,3.385l0,2.813c0,0.388 0.315,0.703 0.703,0.703l8.438,0c0.388,0 0.703,-0.315 0.703,-0.703l0,-0.984c0.66,0.155 1.381,0.234 2.156,0.234c0.775,0 1.496,-0.079 2.156,-0.234l0,0.984c0,0.388 0.315,0.703 0.703,0.703l8.438,0c0.388,0 0.703,-0.315 0.703,-0.703l0,-2.813c0,-1.61 -1.089,-2.97 -2.568,-3.385Zm-12.994,5.495l0,-2.11c0,-1.163 -0.947,-2.109 -2.11,-2.109l-2.812,0c-1.164,0 -2.11,0.946 -2.11,2.109l0,2.11l7.032,0Zm14.156,0l0,-2.11c0,-1.163 -0.946,-2.109 -2.11,-2.109l-2.812,0c-1.163,0 -2.11,0.946 -2.11,2.109l0,2.11l7.032,0Zm-8.438,-2.11l0,0.376c-0.634,0.184 -1.369,0.281 -2.156,0.281c-0.787,0 -1.522,-0.097 -2.156,-0.281l0,-0.376c0,-1.61 -1.089,-2.97 -2.569,-3.385c0.29,-0.442 0.459,-0.97 0.459,-1.536c0,-1.503 -1.185,-2.735 -2.669,-2.809c0.288,-1.393 1.003,-2.703 2.013,-3.705l0,1.498c0,0.388 0.315,0.703 0.703,0.703l8.438,0c0.388,0 0.703,-0.315 0.703,-0.703l0,-1.498c1.01,1.002 1.725,2.312 2.013,3.705c-1.484,0.074 -2.669,1.306 -2.669,2.809c0,0.566 0.169,1.094 0.459,1.536c-1.48,0.415 -2.569,1.775 -2.569,3.385Zm6.328,-4.921c0,0.775 -0.631,1.406 -1.406,1.406c-0.775,0 -1.406,-0.631 -1.406,-1.406c0,-0.776 0.631,-1.407 1.406,-1.407c0.775,0 1.406,0.631 1.406,1.407Zm-15.562,-1.407c0.775,0 1.406,0.631 1.406,1.407c0,0.775 -0.631,1.406 -1.406,1.406c-0.775,0 -1.406,-0.631 -1.406,-1.406c0,-0.776 0.631,-1.407 1.406,-1.407Zm9.685,-1.247c-0.275,-0.274 -0.72,-0.274 -0.995,0l-2.315,2.315l-0.909,-0.909c-0.275,-0.274 -0.72,-0.274 -0.995,0c-0.274,0.275 -0.274,0.72 0,0.995l1.407,1.406c0.274,0.274 0.719,0.275 0.994,0l2.813,-2.813c0.274,-0.274 0.274,-0.719 0,-0.994Zm0.909,-3.065l0,-2.11c0,-1.163 -0.947,-2.109 -2.11,-2.109l-2.812,0c-1.163,0 -2.11,0.946 -2.11,2.109l0,2.11l7.032,0Zm-3.516,-8.438c0.775,0 1.406,0.631 1.406,1.407c0,0.775 -0.631,1.406 -1.406,1.406c-0.775,0 -1.406,-0.631 -1.406,-1.406c0,-0.776 0.631,-1.407 1.406,-1.407Z" style="fill:#e7ae27;"/></svg>