<?xml version="1.0" encoding="UTF-8" standalone="no"?><!DOCTYPE svg PUBLIC "-//W3C//DTD SVG 1.1//EN" "http://www.w3.org/Graphics/SVG/1.1/DTD/svg11.dtd"><svg width="100%" height="100%" viewBox="0 0 26 26" version="1.1" xmlns="http://www.w3.org/2000/svg" xmlns:xlink="http://www.w3.org/1999/xlink" xml:space="preserve" xmlns:serif="http://www.serif.com/" style="fill-rule:evenodd;clip-rule:evenodd;stroke-linejoin:round;stroke-miterlimit:1.41421;"><path id="Layer-12-copy" serif:id="Layer 12 copy" d="M24.5,8.149l0,10.102c0,1.241 -1.009,2.25 -2.25,2.25l-19.5,0c-1.241,0 -2.25,-1.009 -2.25,-2.25l0,-11.501c0,-1.241 1.009,-2.25 2.25,-2.25l19.5,0c1.241,0 2.25,1.009 2.25,2.25l0,1.399Zm-21.75,10.852l19.5,0c0.414,0 0.75,-0.336 0.75,-0.75l0,-8.882l-9.222,4.817c-0.402,0.207 -0.84,0.311 -1.279,0.311c-0.438,0 -0.875,-0.103 -1.273,-0.309l-9.226,-4.821l0,8.884c0,0.414 0.336,0.75 0.75,0.75Zm19.5,-13.001l-19.5,0c-0.414,0 -0.75,0.336 -0.75,0.75l0,0.927l9.917,5.18c0.358,0.185 0.808,0.185 1.169,-0.002l9.914,-5.178l0,-0.927c0,-0.414 -0.336,-0.75 -0.75,-0.75Z" style="fill:#e5e5ff;"/></svg>