<?xml version="1.0" encoding="UTF-8" standalone="no"?><!DOCTYPE svg PUBLIC "-//W3C//DTD SVG 1.1//EN" "http://www.w3.org/Graphics/SVG/1.1/DTD/svg11.dtd"><svg width="100%" height="100%" viewBox="0 0 22 22" version="1.1" xmlns="http://www.w3.org/2000/svg" xmlns:xlink="http://www.w3.org/1999/xlink" xml:space="preserve" xmlns:serif="http://www.serif.com/" style="fill-rule:evenodd;clip-rule:evenodd;stroke-linejoin:round;stroke-miterlimit:1.41421;"><path id="Rectangle-1" serif:id="Rectangle 1" d="M13.114,18.234c-0.594,0.968 -2.116,1.745 -3.409,0.914c-0.27,-0.173 -0.626,-0.818 -0.819,-0.914c-1.613,0 -3.227,0 -4.841,0c-0.291,-0.245 -0.484,-0.269 -0.545,-0.773c0.161,-0.219 0.158,-0.493 0.273,-0.773c0.422,-1.036 0.747,-1.931 1.022,-3.235c0,-0.422 0,-0.844 0,-1.265c0.001,-1.44 -0.233,-3.372 0.137,-4.571c0.498,-1.617 1.416,-2.947 2.659,-3.797c0.287,-0.196 1.413,-0.543 1.568,-0.703c0.209,-0.216 0.234,-0.746 0.409,-0.984c0.255,-0.347 0.742,-0.376 1.091,-0.633c0.979,-0.002 1.608,0.306 1.977,0.914c0.068,0.234 0.137,0.469 0.205,0.703c0.204,0.212 1.069,0.375 1.363,0.563c0.833,0.531 1.667,1.39 2.182,2.25c0.404,0.672 0.626,1.525 0.818,2.39c0,0.422 0,0.844 0,1.266c0,1.449 -0.238,3.252 0.069,4.57c0.29,1.249 1.051,2.241 1.227,3.516c-0.133,0.163 -0.164,0.298 -0.341,0.422c-0.278,0.217 -0.938,0.142 -1.432,0.14l-3.613,0Zm-2.932,-14.132c-0.32,0.221 -0.788,0.19 -1.159,0.351c-1.065,0.461 -2.134,1.514 -2.591,2.602c-0.536,1.272 -0.409,3.298 -0.409,5.133c0,0.562 0,1.125 0,1.687c-0.246,1.152 -0.537,2.083 -0.955,3.023c3.954,0 7.91,0 11.864,0c0,-0.023 0,-0.046 0,-0.07c-1.024,-1.196 -0.955,-3.832 -0.955,-6.117c0,-0.727 0,-1.453 0,-2.18c-0.643,-2.906 -2.267,-4.459 -5.795,-4.429Z" style="fill:#fff;"/></svg>