<?xml version="1.0" encoding="UTF-8" standalone="no"?><!DOCTYPE svg PUBLIC "-//W3C//DTD SVG 1.1//EN" "http://www.w3.org/Graphics/SVG/1.1/DTD/svg11.dtd"><svg width="100%" height="100%" viewBox="0 0 26 26" version="1.1" xmlns="http://www.w3.org/2000/svg" xmlns:xlink="http://www.w3.org/1999/xlink" xml:space="preserve" xmlns:serif="http://www.serif.com/" style="fill-rule:evenodd;clip-rule:evenodd;stroke-linejoin:round;stroke-miterlimit:1.41421;"><path id="Forma-1" serif:id="Forma 1" d="M16.448,15.207c3.901,0.004 7.052,3.175 7.052,7.052c0,0.413 -0.328,0.741 -0.741,0.741l-19.518,0c-0.413,0 -0.741,-0.328 -0.741,-0.741c0,-3.895 3.169,-7.048 7.052,-7.052l6.896,0Zm5.517,6.31c-0.365,-2.727 -2.691,-4.827 -5.517,-4.827l-6.896,0c-2.828,0 -5.155,2.12 -5.518,4.827l17.931,0Zm-8.999,-7.293c3.103,0 5.62,-2.517 5.62,-5.621c0,-3.103 -2.517,-5.603 -5.62,-5.603c-3.104,0 -5.621,2.517 -5.621,5.603c0,3.087 2.517,5.621 5.621,5.621Zm0,-9.759c2.275,0 4.137,1.863 4.137,4.138c0,2.276 -1.862,4.138 -4.137,4.138c-2.276,0 -4.138,-1.862 -4.138,-4.138c0,-2.275 1.862,-4.138 4.138,-4.138Z" style="fill:#86c06d;"/></svg>