<?xml version="1.0" encoding="UTF-8" standalone="no"?><!DOCTYPE svg PUBLIC "-//W3C//DTD SVG 1.1//EN" "http://www.w3.org/Graphics/SVG/1.1/DTD/svg11.dtd"><svg width="100%" height="100%" viewBox="0 0 20 20" version="1.1" xmlns="http://www.w3.org/2000/svg" xmlns:xlink="http://www.w3.org/1999/xlink" xml:space="preserve" xmlns:serif="http://www.serif.com/" style="fill-rule:evenodd;clip-rule:evenodd;stroke-linejoin:round;stroke-miterlimit:1.41421;"><path id="Layer-15" serif:id="Layer 15" d="M17.116,18l-1.244,-1.244c-0.421,0.251 -0.913,0.396 -1.438,0.396c-1.55,0 -2.812,-1.261 -2.812,-2.812c0,-1.55 1.262,-2.811 2.812,-2.811c1.55,0 2.812,1.261 2.812,2.811c0,0.574 -0.173,1.108 -0.469,1.553l1.223,1.223l-0.884,0.884Zm-0.995,-16c1.034,0.001 1.874,0.841 1.874,1.874l0,7.061l-1.249,0l0,-7.061c0,-0.344 -0.28,-0.624 -0.625,-0.624l-12.247,0c-0.344,0 -0.624,0.28 -0.624,0.624l0,12.247c0,0.345 0.28,0.625 0.624,0.625l7.217,0l0,1.25l-7.217,0c-1.033,0 -1.874,-0.841 -1.874,-1.875l0,-12.247c0,-1.033 0.84,-1.873 1.874,-1.874l12.247,0Zm-1.687,13.902c0.861,0 1.562,-0.7 1.562,-1.562c0,-0.861 -0.701,-1.562 -1.562,-1.562c-0.861,0 -1.562,0.701 -1.562,1.562c0,0.862 0.701,1.562 1.562,1.562Zm-8.529,-2.811c-0.431,0 -0.781,0.349 -0.781,0.781c0,0.431 0.35,0.781 0.781,0.781c0.431,0 0.781,-0.35 0.781,-0.781c0,-0.432 -0.35,-0.781 -0.781,-0.781Zm4.468,1.405l-2.125,0l0,-1.249l2.125,0l0,1.249Zm-4.468,-5.373c-0.431,0 -0.781,0.35 -0.781,0.781c0,0.431 0.35,0.781 0.781,0.781c0.431,0 0.781,-0.35 0.781,-0.781c0,-0.431 -0.35,-0.781 -0.781,-0.781Zm2.343,0.156l6.311,0l0,1.25l-6.311,0l0,-1.25Zm-2.343,-3.905c-0.431,0 -0.781,0.35 -0.781,0.781c0,0.431 0.35,0.781 0.781,0.781c0.431,0 0.781,-0.35 0.781,-0.781c0,-0.431 -0.35,-0.781 -0.781,-0.781Zm2.343,0.156l6.311,0l0,1.25l-6.311,0l0,-1.25Z" style="fill:#fff;"/></svg>