<?xml version="1.0" encoding="UTF-8" standalone="no"?><!DOCTYPE svg PUBLIC "-//W3C//DTD SVG 1.1//EN" "http://www.w3.org/Graphics/SVG/1.1/DTD/svg11.dtd"><svg width="100%" height="100%" viewBox="0 0 14 14" version="1.1" xmlns="http://www.w3.org/2000/svg" xmlns:xlink="http://www.w3.org/1999/xlink" xml:space="preserve" xmlns:serif="http://www.serif.com/" style="fill-rule:evenodd;clip-rule:evenodd;stroke-linejoin:round;stroke-miterlimit:1.41421;"><path id="Shape-1" serif:id="Shape 1" d="M8.133,13.213l-0.005,0.021l0,-9.367l3.046,2.944c0.149,0.145 0.35,0.224 0.561,0.224c0.212,0 0.412,-0.079 0.561,-0.224l0.473,-0.458c0.149,-0.144 0.231,-0.336 0.231,-0.541c0,-0.205 -0.082,-0.397 -0.23,-0.541l-5.21,-5.048c-0.149,-0.145 -0.348,-0.224 -0.559,-0.223c-0.213,-0.001 -0.412,0.078 -0.561,0.223l-5.21,5.048c-0.148,0.144 -0.23,0.336 -0.23,0.541c0,0.205 0.082,0.397 0.23,0.541l0.474,0.458c0.148,0.145 0.346,0.224 0.558,0.224c0.211,0 0.399,-0.079 0.547,-0.224l3.063,-2.978l0,9.39c0,0.422 0.376,0.776 0.811,0.776l0.669,0c0.435,0 0.781,-0.365 0.781,-0.786Z" style="fill:#00c58d;fill-rule:nonzero;"/></svg>