<?xml version="1.0" encoding="UTF-8" standalone="no"?><!DOCTYPE svg PUBLIC "-//W3C//DTD SVG 1.1//EN" "http://www.w3.org/Graphics/SVG/1.1/DTD/svg11.dtd"><svg width="100%" height="100%" viewBox="0 0 36 36" version="1.1" xmlns="http://www.w3.org/2000/svg" xmlns:xlink="http://www.w3.org/1999/xlink" xml:space="preserve" xmlns:serif="http://www.serif.com/" style="fill-rule:evenodd;clip-rule:evenodd;stroke-linejoin:round;stroke-miterlimit:1.41421;"><path id="Forma-1" serif:id="Forma 1" d="M19.013,27.917l-5.306,3.402l-12.057,-6.981c-0.37,-0.213 -0.839,-0.082 -1.049,0.294c-0.21,0.377 -0.081,0.855 0.288,1.069l12.458,7.213c0.118,0.068 0.25,0.102 0.381,0.102c0.142,0 0.284,-0.04 0.409,-0.12l5.696,-3.653c0.359,-0.231 0.467,-0.715 0.241,-1.081c-0.227,-0.366 -0.702,-0.476 -1.061,-0.245Zm0,-3.135l-5.306,3.403l-12.057,-6.981c-0.37,-0.214 -0.839,-0.083 -1.049,0.294c-0.21,0.376 -0.081,0.855 0.288,1.068l12.458,7.213c0.118,0.069 0.25,0.103 0.381,0.103c0.142,0 0.284,-0.041 0.409,-0.121l5.696,-3.653c0.359,-0.23 0.467,-0.714 0.241,-1.08c-0.227,-0.367 -0.702,-0.477 -1.061,-0.246Zm7.483,-9.744c-0.001,-0.007 -0.002,-0.013 -0.003,-0.02c-0.004,-0.031 -0.01,-0.063 -0.018,-0.094c0,0 0,-0.001 -0.001,-0.001c-0.007,-0.029 -0.018,-0.058 -0.029,-0.087c-0.003,-0.008 -0.007,-0.015 -0.01,-0.023c-0.009,-0.021 -0.019,-0.041 -0.03,-0.061c-0.004,-0.009 -0.009,-0.017 -0.014,-0.026c-0.003,-0.005 -0.005,-0.01 -0.008,-0.014c-0.011,-0.019 -0.023,-0.036 -0.036,-0.053c-0.002,-0.003 -0.004,-0.007 -0.007,-0.01c-0.019,-0.025 -0.04,-0.049 -0.062,-0.071c-0.004,-0.004 -0.008,-0.008 -0.012,-0.012c-0.019,-0.019 -0.039,-0.036 -0.059,-0.053c-0.006,-0.004 -0.011,-0.008 -0.016,-0.012c-0.027,-0.021 -0.056,-0.04 -0.085,-0.057l-11.334,-6.562l6.525,-4.185l10.941,6.334l-4.608,2.955c-0.359,0.23 -0.467,0.714 -0.241,1.081c0.227,0.366 0.702,0.476 1.061,0.245l5.695,-3.652c0.229,-0.147 0.366,-0.406 0.36,-0.681c-0.007,-0.276 -0.154,-0.528 -0.389,-0.664l-12.459,-7.213c-0.246,-0.142 -0.55,-0.135 -0.79,0.018l-7.997,5.13c-0.002,0.001 -0.004,0.002 -0.005,0.003l-3.997,2.563c-0.002,0.002 -0.003,0.003 -0.005,0.004l-8.003,5.133c-0.229,0.147 -0.366,0.405 -0.36,0.681c0.006,0.275 0.154,0.527 0.389,0.663l12.459,7.213c0.118,0.069 0.249,0.103 0.38,0.103c0.142,0 0.285,-0.041 0.41,-0.121l5.695,-3.652c0.359,-0.231 0.467,-0.715 0.241,-1.081c-0.227,-0.366 -0.702,-0.476 -1.061,-0.246l-5.306,3.403l-10.94,-6.334l6.526,-4.186l11.668,6.756l0,8.947c0,0.286 0.153,0.548 0.398,0.686c0.116,0.066 0.244,0.098 0.372,0.098c0.142,0 0.285,-0.04 0.41,-0.121l4.001,-2.566c0.224,-0.144 0.36,-0.394 0.36,-0.663l0,-9.404c0,-0.004 -0.001,-0.009 -0.001,-0.013c-0.001,-0.026 -0.002,-0.052 -0.005,-0.078Zm-7.483,6.61l-5.306,3.402l-12.057,-6.981c-0.37,-0.213 -0.839,-0.082 -1.049,0.294c-0.21,0.377 -0.081,0.855 0.288,1.069l12.458,7.213c0.118,0.068 0.25,0.102 0.381,0.102c0.142,0 0.284,-0.04 0.409,-0.12l5.696,-3.653c0.359,-0.231 0.467,-0.714 0.241,-1.081c-0.227,-0.366 -0.702,-0.476 -1.061,-0.245Zm3.487,4.032l0,-7.984c0,-0.282 -0.149,-0.542 -0.389,-0.681l-11.341,-6.566l2.524,-1.619l10.941,6.334l-0.958,0.614c-0.36,0.231 -0.468,0.715 -0.241,1.081c0.146,0.236 0.396,0.366 0.652,0.366c0.14,0 0.281,-0.039 0.409,-0.121l0.866,-0.555l0,7.551l-2.463,1.58Zm10.826,-6.943l-5.696,3.652c-0.359,0.231 -0.467,0.715 -0.241,1.081c0.146,0.236 0.397,0.366 0.652,0.366c0.14,0 0.282,-0.039 0.409,-0.121l5.695,-3.652c0.36,-0.231 0.468,-0.715 0.242,-1.081c-0.227,-0.366 -0.702,-0.476 -1.061,-0.245Zm0,-3.135l-5.696,3.653c-0.359,0.23 -0.467,0.714 -0.241,1.08c0.146,0.237 0.397,0.367 0.652,0.367c0.14,0 0.282,-0.039 0.409,-0.121l5.695,-3.653c0.36,-0.23 0.468,-0.714 0.242,-1.08c-0.227,-0.367 -0.702,-0.477 -1.061,-0.246Zm0,-3.134l-5.696,3.652c-0.359,0.231 -0.467,0.715 -0.241,1.081c0.146,0.237 0.397,0.366 0.652,0.366c0.14,0 0.282,-0.039 0.409,-0.12l5.695,-3.653c0.36,-0.231 0.468,-0.715 0.242,-1.081c-0.227,-0.366 -0.702,-0.476 -1.061,-0.245Z" style="fill:#573ebb;"/></svg>