<?xml version="1.0" encoding="UTF-8" standalone="no"?><!DOCTYPE svg PUBLIC "-//W3C//DTD SVG 1.1//EN" "http://www.w3.org/Graphics/SVG/1.1/DTD/svg11.dtd"><svg width="100%" height="100%" viewBox="0 0 22 22" version="1.1" xmlns="http://www.w3.org/2000/svg" xmlns:xlink="http://www.w3.org/1999/xlink" xml:space="preserve" xmlns:serif="http://www.serif.com/" style="fill-rule:evenodd;clip-rule:evenodd;stroke-linejoin:round;stroke-miterlimit:1.41421;"><path id="search" d="M18.794,17.854l-3.844,-3.844c0.952,-1.162 1.527,-2.65 1.527,-4.272c0,-3.72 -3.019,-6.738 -6.739,-6.738c-3.723,0 -6.738,3.018 -6.738,6.738c0,3.72 3.015,6.739 6.738,6.739c1.622,0 3.107,-0.571 4.269,-1.524l3.844,3.841c0.261,0.261 0.682,0.261 0.943,0c0.261,-0.258 0.261,-0.682 0,-0.94Zm-9.056,-2.718c-2.979,0 -5.4,-2.422 -5.4,-5.398c0,-2.976 2.421,-5.4 5.4,-5.4c2.976,0 5.401,2.424 5.401,5.4c0,2.976 -2.425,5.398 -5.401,5.398Z" style="fill:#fff;fill-rule:nonzero;"/></svg>