<?xml version="1.0" encoding="UTF-8" standalone="no"?><!DOCTYPE svg PUBLIC "-//W3C//DTD SVG 1.1//EN" "http://www.w3.org/Graphics/SVG/1.1/DTD/svg11.dtd"><svg width="100%" height="100%" viewBox="0 0 20 20" version="1.1" xmlns="http://www.w3.org/2000/svg" xmlns:xlink="http://www.w3.org/1999/xlink" xml:space="preserve" xmlns:serif="http://www.serif.com/" style="fill-rule:evenodd;clip-rule:evenodd;stroke-linejoin:round;stroke-miterlimit:1.41421;"><path id="Ellipse-1" serif:id="Ellipse 1" d="M11.455,2c0.403,0.002 0.727,0.327 0.727,0.727l0,1.1c0.217,0.077 0.431,0.166 0.64,0.266l0.778,-0.778c0.136,-0.137 0.321,-0.213 0.514,-0.213c0.193,0 0.378,0.076 0.514,0.213l2.057,2.057c0.284,0.284 0.284,0.744 0,1.028l-0.778,0.778c0.1,0.209 0.189,0.423 0.266,0.64l1.1,0c0.401,0 0.727,0.326 0.727,0.727l0,2.909c0,0.402 -0.326,0.728 -0.727,0.728l-1.1,0c-0.077,0.217 -0.166,0.431 -0.266,0.64l0.778,0.778c0.285,0.284 0.285,0.744 0,1.028l-2.057,2.057c-0.284,0.284 -0.744,0.284 -1.028,0l-0.778,-0.778c-0.209,0.1 -0.423,0.189 -0.64,0.266l0,1.1c0,0.401 -0.326,0.727 -0.727,0.727l-2.91,0c-0.401,0 -0.727,-0.326 -0.727,-0.727l0,-1.1c-0.217,-0.077 -0.431,-0.166 -0.639,-0.266l-0.779,0.778c-0.284,0.284 -0.744,0.284 -1.028,0l-2.057,-2.057c-0.137,-0.136 -0.213,-0.321 -0.213,-0.514c0,-0.193 0.076,-0.378 0.213,-0.514l0.778,-0.778c-0.1,-0.208 -0.188,-0.421 -0.266,-0.64l-1.1,0c-0.403,-0.002 -0.727,-0.327 -0.727,-0.728l0,-2.909c0,-0.4 0.324,-0.725 0.727,-0.727l1.1,0c0.078,-0.219 0.166,-0.432 0.266,-0.64l-0.778,-0.778c-0.284,-0.284 -0.284,-0.744 0,-1.028l2.057,-2.057c0.284,-0.284 0.744,-0.284 1.028,0l0.778,0.778c0.209,-0.1 0.423,-0.189 0.64,-0.266l0,-1.1c0,-0.4 0.324,-0.725 0.727,-0.727l2.91,0Zm4.18,7.273c-0.333,-0.002 -0.622,-0.226 -0.704,-0.546c-0.119,-0.46 -0.302,-0.901 -0.545,-1.312c-0.169,-0.286 -0.123,-0.65 0.112,-0.885l0.645,-0.644l-1.029,-1.029l-0.644,0.645c-0.235,0.235 -0.599,0.281 -0.885,0.112c-0.411,-0.243 -0.852,-0.426 -1.312,-0.545c-0.321,-0.082 -0.546,-0.372 -0.546,-0.704l0,-0.91l-1.454,0l0,0.91c0,0.332 -0.225,0.622 -0.546,0.704c-0.459,0.119 -0.901,0.302 -1.312,0.545c-0.286,0.169 -0.65,0.123 -0.885,-0.112l-0.644,-0.645l-1.029,1.029l0.645,0.644c0.235,0.235 0.281,0.599 0.112,0.885c-0.243,0.411 -0.426,0.852 -0.545,1.312c-0.082,0.321 -0.372,0.546 -0.704,0.546l-0.91,0l0,1.454l0.91,0c0.332,0 0.622,0.225 0.704,0.546c0.119,0.459 0.302,0.901 0.545,1.312c0.169,0.286 0.123,0.65 -0.112,0.884l-0.645,0.645l1.029,1.029l0.645,-0.645c0.234,-0.235 0.598,-0.281 0.884,-0.112c0.411,0.243 0.853,0.426 1.312,0.545c0.321,0.082 0.546,0.372 0.546,0.704l0,0.91l1.454,0l0,-0.91c0,-0.332 0.225,-0.622 0.546,-0.704c0.46,-0.119 0.901,-0.302 1.312,-0.545c0.286,-0.169 0.65,-0.123 0.885,0.112l0.644,0.645l1.029,-1.029l-0.645,-0.645c-0.235,-0.234 -0.281,-0.598 -0.112,-0.884c0.243,-0.411 0.426,-0.853 0.545,-1.312c0.082,-0.32 0.37,-0.545 0.704,-0.546l0.911,0l0,-1.454l-0.911,0Zm-5.661,-0.867c0.88,0 1.594,0.714 1.594,1.594c0,0.88 -0.714,1.594 -1.594,1.594c-0.88,0 -1.594,-0.714 -1.594,-1.594c0,-0.88 0.714,-1.594 1.594,-1.594Z" style="fill:#fff;"/></svg>