<?xml version="1.0" encoding="UTF-8" standalone="no"?><!DOCTYPE svg PUBLIC "-//W3C//DTD SVG 1.1//EN" "http://www.w3.org/Graphics/SVG/1.1/DTD/svg11.dtd"><svg width="100%" height="100%" viewBox="0 0 20 20" version="1.1" xmlns="http://www.w3.org/2000/svg" xmlns:xlink="http://www.w3.org/1999/xlink" xml:space="preserve" xmlns:serif="http://www.serif.com/" style="fill-rule:evenodd;clip-rule:evenodd;stroke-linejoin:round;stroke-miterlimit:1.41421;"><path id="Forma-1" serif:id="Forma 1" d="M13.429,10.442c1.083,-0.989 1.768,-2.436 1.768,-4.046c0,-2.975 -2.337,-5.396 -5.209,-5.396c-2.873,0 -5.21,2.421 -5.21,5.396c0,1.61 0.685,3.057 1.768,4.046c-2.686,1.335 -4.546,4.18 -4.546,7.467c0,0.596 0.467,1.079 1.042,1.079l13.892,0c0.575,0 1.042,-0.483 1.042,-1.079c0,-3.287 -1.86,-6.132 -4.547,-7.467Zm-3.441,-7.283c1.723,0 3.126,1.452 3.126,3.237c0,1.786 -1.403,3.238 -3.126,3.238c-1.724,0 -3.126,-1.452 -3.126,-3.238c0,-1.785 1.402,-3.237 3.126,-3.237Zm-5.812,13.67c0.493,-2.859 2.912,-5.036 5.812,-5.036c2.9,0 5.318,2.177 5.812,5.036l-11.624,0Z" style="fill:#656565;fill-rule:nonzero;"/></svg>